<svg width="45" height="45" viewBox="0 0 45 45" fill="none" xmlns="http://www.w3.org/2000/svg">
<circle cx="22.5" cy="22.5" r="22.5" fill="#0B684B"/>
<path d="M20.5 23.25C23.9518 23.25 26.75 20.4518 26.75 17C26.75 13.5482 23.9518 10.75 20.5 10.75C17.0482 10.75 14.25 13.5482 14.25 17C14.25 20.4518 17.0482 23.25 20.5 23.25Z" stroke="white" stroke-width="2" stroke-linecap="round" stroke-linejoin="round"/>
<path d="M10.5 33.25C10.5001 31.6762 10.8717 30.1247 11.5846 28.7216C12.2974 27.3184 13.3313 26.1034 14.6023 25.1752C15.8732 24.247 17.3453 23.6319 18.8988 23.3799C20.4523 23.1279 22.0433 23.2462 23.5425 23.725" stroke="white" stroke-width="2" stroke-linecap="round" stroke-linejoin="round"/>
<path d="M30.5 33.25C32.5711 33.25 34.25 31.5711 34.25 29.5C34.25 27.4289 32.5711 25.75 30.5 25.75C28.4289 25.75 26.75 27.4289 26.75 29.5C26.75 31.5711 28.4289 33.25 30.5 33.25Z" stroke="white" stroke-width="2" stroke-linecap="round" stroke-linejoin="round"/>
<path d="M35.5 34.5L33.125 32.125" stroke="white" stroke-width="2" stroke-linecap="round" stroke-linejoin="round"/>
</svg>
